<?xml version="1.0" encoding="utf-8"?>
<!-- Svg Vector Icons : http://www.onlinewebfonts.com/icon -->
<!DOCTYPE svg PUBLIC "-//W3C//DTD SVG 1.1//EN" "http://www.w3.org/Graphics/SVG/1.1/DTD/svg11.dtd">
<svg version="1.1" xmlns="http://www.w3.org/2000/svg" xmlns:xlink="http://www.w3.org/1999/xlink" x="0px" y="0px" viewBox="0 0 1000 1000" enable-background="new 0 0 1000 1000" xml:space="preserve">
<metadata> Svg Vector Icons : http://www.onlinewebfonts.com/icon </metadata>
<g><g transform="translate(0.000000,511.000000) scale(0.100000,-0.100000)"><path d="M7040.4,2382.7c-600.8-94-1103.5-468-1361-1011.5c-120.6-255.4-159.4-410.8-175.7-684.6C5469,57.2,5775.5-543.6,6312.9-905.3c196.2-128.8,453.7-233,678.4-271.8l141-24.5v-1630.7V-4463h-490.4h-490.4v200.3c0,192.1,2,202.3,49.1,224.8c85.8,38.8,202.3,155.3,239.1,239.1c34.7,73.6,38.8,145.1,38.8,653.9c0,512.9-4.1,580.4-38.8,653.9c-44.9,98.1-122.6,173.7-245.2,239.1l-87.9,47l-322.9,805.1c-179.8,449.6-339.2,819.4-359.6,833.7c-28.6,20.4-365.8,26.6-1732.9,26.6c-1526.5,0-1698.2-4.1-1730.9-32.7c-20.4-18.4-181.9-396.4-359.7-839.9c-314.7-790.8-322.9-807.2-396.4-844c-116.5-61.3-204.4-145.1-245.2-235c-34.7-73.5-38.8-143-38.8-653.9c0-508.8,4.1-580.4,38.8-653.9c36.8-83.8,153.3-200.3,239.1-239.1c47-22.5,49-32.7,49-224.8V-4463H899.7c-431.2,0-490.4-20.4-490.4-175.7c0-28.6,22.5-73.6,51.1-100.1l49-51.1h3839.8h3839.8l42.9,47c65.4,69.5,61.3,181.9-8.1,237.1c-51.1,38.8-81.8,42.9-408.7,42.9h-355.6v1632.8v1632.8l108.3,12.3c161.4,20.4,480.2,136.9,651.9,237c204.3,120.6,529.2,449.6,643.7,653.9c47,83.8,114.4,241.1,151.2,347.4c57.2,171.6,67.4,228.9,75.6,474.1c8.2,239.1,2.1,310.6-34.7,474.1c-151.2,651.9-664.1,1175-1320.1,1340.5C7545.2,2390.9,7216.2,2409.3,7040.4,2382.7z M7733.2,1381.4c147.1-55.2,284-179.8,353.5-322.9c49-98.1,57.2-141,57.2-280c-2.1-208.4-55.2-339.2-196.2-470c-171.7-159.4-243.2-181.9-625.3-190l-333.1-8.2v-282c0-282,0-284-53.1-324.9c-69.5-55.2-134.9-55.2-202.3,4.1l-53.1,45l2,888.9c0,878.7,2,886.9,45,933.9c42.9,47,53.1,47,468,47C7573.8,1422.3,7633,1418.2,7733.2,1381.4z M5475.1-1493.8c138.9-347.4,255.4-641.7,261.6-653.9c8.1-20.4-406.7-26.6-2037.4-26.6c-1941.3,0-2047.6,2.1-2037.4,36.8c8.2,28.6,429.1,1093.3,484.3,1226.1l20.4,45h1528.5h1528.5L5475.1-1493.8z M2133.9-2877.3c122.6-51.1,198.2-202.3,167.6-329c-8.2-28.6-45-87.9-83.8-128.7c-65.4-71.5-75.6-75.6-192.1-75.6c-114.4,0-128.7,6.1-198.2,75.6c-143,141-106.3,359.6,73.6,449.6C1986.8-2840.5,2044-2840.5,2133.9-2877.3z M5485.3-2877.3c122.6-51.1,198.2-202.3,167.6-329c-8.2-28.6-44.9-87.9-83.8-128.7c-65.4-71.5-75.6-75.6-192.1-75.6c-116.5,0-128.8,4.1-200.3,77.7c-71.5,69.5-77.7,85.8-77.7,186c0,130.8,45,206.4,155.3,261.6C5338.2-2840.5,5395.4-2840.5,5485.3-2877.3z M5170.6-4299.6V-4463H3699.3H2227.9v163.5v163.5h1471.3h1471.3V-4299.6z"/><path d="M6993.4,774.5l6.1-322.9l265.7-6.1c310.6-6.1,408.7,20.4,492.5,130.8c116.5,151.2,71.5,382.1-92,474.1c-71.5,40.9-108.3,45-378.1,45h-300.4L6993.4,774.5z"/></g></g>
</svg>