<?xml version="1.0"?>
<svg xmlns="http://www.w3.org/2000/svg" version="1" viewBox="0 0 24 24" enable-background="new 0 0 24 24">
    <path d="M 2 3 L 2 5 L 6.59375 5 C 7.0493056 5 7.3843511 5.2749362 7.5625 5.75 L 8.9375 10 L 2 10 L 2 18 L 7 18 L 7 20 C 7 20.6 7.4 21 8 21 L 10 21 C 10.6 21 11 20.6 11 20 L 11 17 L 11 12 L 11 10.3125 L 11 10 L 10.96875 10 C 10.943657 9.8129784 10.903213 9.6073697 10.8125 9.375 L 10.84375 9.375 L 9.4375 5.09375 L 9.4375 5.0625 C 9.0156489 3.9375638 7.9381944 3 6.59375 3 L 2 3 z M 16 3 C 14.895431 3 14 3.8954305 14 5 C 14 6.1045695 14.895431 7 16 7 C 17.104569 7 18 6.1045695 18 5 C 18 3.8954305 17.104569 3 16 3 z M 18.1875 7 C 17.72883 7.0302199 17.433448 7.2207759 17.25 7.3125 L 17.15625 7.34375 L 17.0625 7.40625 L 15.25 8.90625 L 15.125 8.96875 C 15.133449 8.9695808 15.062377 9 15.09375 9 L 12 9 L 12 11 L 15.09375 11 C 15.627083 11 15.95625 10.7875 16.15625 10.6875 L 16.25 10.65625 L 16.3125 10.59375 L 17.25 9.84375 L 18.90625 12.8125 L 17.40625 14.6875 C 16.883515 15.277091 16.862279 16.05719 17.3125 16.6875 L 20 21 L 22 21 L 19.375 16.40625 L 21.1875 14.5 C 21.9875 13.9 22.1875 12.8 21.6875 12 L 19.5 7.8125 C 19.3 7.3125 18.9125 7 18.3125 7 L 18.1875 7 z M 7.5 12 C 8.3 12 9 12.7 9 13.5 C 9 14.3 8.3 15 7.5 15 C 6.7 15 6 14.3 6 13.5 C 6 12.7 6.7 12 7.5 12 z M 16.6875 17.40625 L 16 21 L 17.8125 21 L 18 19.5 L 16.6875 17.40625 z"/>
</svg>
